<svg width="120" height="120" viewBox="0 0 120 120" fill="none" xmlns="http://www.w3.org/2000/svg">
<path fill-rule="evenodd" clip-rule="evenodd" d="M120 69.6042C100.845 87.8633 62.7391 90.2461 47.2794 74.4407C44.6336 116.679 110.548 125.318 120 69.6042Z" fill="url(#paint0_linear_46_126)"/>
<path fill-rule="evenodd" clip-rule="evenodd" d="M0 50.2608C17.2825 36.1733 48.799 31.5536 64.059 36.1039C80.0717 40.8779 88.0862 54.8659 75.1281 71.9887C116.797 70.2308 123.628 50.4961 114.099 32.4816C105.032 15.3418 85.2267 -0.0100229 61.2396 4.90987e-06C46.9407 0.00617585 32.2732 4.19857 20.5554 14.3035C10.1219 23.3 4.06047 31.5613 0 50.2608Z" fill="url(#paint1_linear_46_126)"/>
<path fill-rule="evenodd" clip-rule="evenodd" d="M60 50.2191C65.4389 50.2191 69.848 54.5666 69.848 59.9299C69.848 65.2932 65.4389 69.6406 60 69.6406C54.5619 69.6406 50.1527 65.2932 50.1527 59.9299C50.1527 54.5666 54.5619 50.2191 60 50.2191Z" fill="url(#paint2_linear_46_126)"/>
<path fill-rule="evenodd" clip-rule="evenodd" d="M64.9661 119.739C34.2796 109.842 21.2366 73.354 45.6966 46.9315C-34.6505 50.2607 11.505 124.952 64.9661 119.739Z" fill="url(#paint3_linear_46_126)"/>
<defs>
<linearGradient id="paint0_linear_46_126" x1="85.4834" y1="100.156" x2="58.381" y2="82.2874" gradientUnits="userSpaceOnUse">
<stop stop-color="#C92727"/>
<stop offset="1" stop-color="#FF4848"/>
</linearGradient>
<linearGradient id="paint1_linear_46_126" x1="61.994" y1="56.1586" x2="14.9109" y2="28.8102" gradientUnits="userSpaceOnUse">
<stop stop-color="#C92727"/>
<stop offset="1" stop-color="#FF4848"/>
</linearGradient>
<linearGradient id="paint2_linear_46_126" x1="60.5097" y1="65.3699" x2="51.195" y2="62.0195" gradientUnits="userSpaceOnUse">
<stop stop-color="#C92727"/>
<stop offset="1" stop-color="#FF4848"/>
</linearGradient>
<linearGradient id="paint3_linear_46_126" x1="35.2738" y1="103.932" x2="4.65453" y2="94.6245" gradientUnits="userSpaceOnUse">
<stop stop-color="#C92727"/>
<stop offset="1" stop-color="#FF4848"/>
</linearGradient>
</defs>
</svg>
